<?xml version="1.0" encoding="UTF-8" standalone="no"?>
<!DOCTYPE svg PUBLIC "-//W3C//DTD SVG 1.1//EN" "http://www.w3.org/Graphics/SVG/1.1/DTD/svg11.dtd">
<svg version="1.1" xmlns="http://www.w3.org/2000/svg" xmlns:xlink="http://www.w3.org/1999/xlink" preserveAspectRatio="xMidYMid meet" viewBox="0 0 30 30" width="30" height="30"><defs><path d="M17.31 0L17.34 0.01L17.37 0.01L17.39 0.02L17.42 0.03L17.45 0.04L17.47 0.05L17.49 0.06L17.52 0.07L17.54 0.09L17.56 0.1L17.58 0.12L17.6 0.14L17.62 0.16L17.64 0.18L17.66 0.2L17.68 0.23L17.7 0.25L17.72 0.27L17.73 0.3L17.75 0.33L17.77 0.36L17.78 0.38L17.8 0.41L17.81 0.44L17.83 0.47L17.84 0.51L17.86 0.54L17.87 0.57L17.88 0.61L17.9 0.64L17.91 0.68L17.92 0.71L17.94 0.75L17.95 0.79L17.96 0.82L17.97 0.86L17.99 0.9L18 0.94L18.65 3.37L18.85 3.43L19.3 3.59L19.74 3.77L20.18 3.96L20.6 4.17L20.64 4.19L22.82 2.93L22.86 2.91L22.89 2.89L22.93 2.87L22.97 2.85L23 2.84L23.04 2.82L23.07 2.8L23.1 2.79L23.14 2.77L23.17 2.76L23.21 2.75L23.24 2.73L23.27 2.72L23.3 2.71L23.34 2.7L23.37 2.69L23.4 2.68L23.43 2.67L23.46 2.66L23.49 2.66L23.52 2.65L23.55 2.65L23.58 2.64L23.61 2.64L23.64 2.64L23.67 2.64L23.69 2.64L23.72 2.65L23.75 2.65L23.77 2.66L23.8 2.66L23.83 2.67L23.85 2.68L23.88 2.69L23.9 2.7L23.92 2.72L23.95 2.74L23.97 2.75L23.99 2.77L24.02 2.79L27.2 5.98L27.22 6L27.24 6.02L27.26 6.04L27.27 6.07L27.29 6.09L27.3 6.12L27.31 6.14L27.32 6.17L27.33 6.2L27.34 6.22L27.35 6.25L27.35 6.28L27.35 6.31L27.36 6.33L27.36 6.36L27.36 6.39L27.36 6.42L27.35 6.45L27.35 6.48L27.35 6.51L27.34 6.54L27.33 6.57L27.33 6.61L27.32 6.64L27.31 6.67L27.3 6.7L27.29 6.73L27.27 6.77L27.26 6.8L27.25 6.83L27.23 6.87L27.21 6.9L27.2 6.93L27.18 6.97L27.16 7L27.14 7.03L27.13 7.07L27.11 7.1L27.09 7.13L27.07 7.17L25.8 9.35L25.83 9.4L26.04 9.82L26.23 10.26L26.41 10.7L26.57 11.15L26.63 11.35L29.06 12L29.1 12.01L29.14 12.02L29.18 12.03L29.21 12.04L29.25 12.05L29.29 12.06L29.32 12.07L29.36 12.08L29.39 12.1L29.43 12.11L29.46 12.12L29.49 12.14L29.53 12.15L29.56 12.17L29.59 12.18L29.62 12.2L29.64 12.21L29.67 12.23L29.7 12.25L29.73 12.26L29.75 12.28L29.77 12.3L29.8 12.32L29.82 12.34L29.84 12.36L29.86 12.38L29.88 12.41L29.9 12.43L29.91 12.45L29.93 12.48L29.94 12.5L29.95 12.52L29.96 12.55L29.97 12.58L29.98 12.6L29.99 12.63L29.99 12.66L30 12.69L30 12.72L30 12.75L30 17.25L30 17.28L30 17.31L29.99 17.34L29.99 17.37L29.98 17.39L29.97 17.42L29.96 17.45L29.95 17.47L29.94 17.49L29.93 17.52L29.91 17.54L29.9 17.56L29.88 17.58L29.86 17.6L29.84 17.62L29.82 17.64L29.8 17.66L29.77 17.68L29.75 17.7L29.73 17.72L29.7 17.73L29.67 17.75L29.64 17.77L29.62 17.78L29.59 17.8L29.56 17.81L29.53 17.83L29.49 17.84L29.46 17.86L29.43 17.87L29.39 17.88L29.36 17.9L29.32 17.91L29.29 17.92L29.25 17.94L29.21 17.95L29.18 17.96L29.14 17.97L29.1 17.99L29.06 18L26.63 18.65L26.57 18.85L26.41 19.3L26.23 19.74L26.04 20.18L25.83 20.6L25.8 20.64L27.07 22.82L27.09 22.86L27.11 22.89L27.13 22.92L27.14 22.96L27.16 22.99L27.18 23.02L27.2 23.06L27.21 23.09L27.23 23.12L27.25 23.16L27.26 23.19L27.27 23.22L27.29 23.26L27.3 23.29L27.31 23.32L27.32 23.35L27.33 23.38L27.33 23.42L27.34 23.45L27.35 23.48L27.35 23.51L27.35 23.54L27.36 23.57L27.36 23.6L27.36 23.63L27.36 23.66L27.35 23.69L27.35 23.71L27.35 23.74L27.34 23.77L27.33 23.8L27.32 23.82L27.31 23.85L27.3 23.87L27.29 23.9L27.27 23.92L27.26 23.95L27.24 23.97L27.22 23.99L27.2 24.02L24.02 27.2L23.99 27.22L23.97 27.24L23.95 27.26L23.92 27.27L23.9 27.29L23.88 27.3L23.85 27.31L23.83 27.32L23.8 27.33L23.77 27.34L23.75 27.34L23.72 27.34L23.69 27.35L23.67 27.35L23.64 27.35L23.61 27.35L23.58 27.35L23.55 27.34L23.52 27.34L23.49 27.33L23.46 27.33L23.43 27.32L23.4 27.31L23.37 27.3L23.34 27.29L23.3 27.28L23.27 27.27L23.24 27.26L23.21 27.24L23.17 27.23L23.14 27.22L23.1 27.2L23.07 27.19L23.04 27.17L23 27.15L22.97 27.14L22.93 27.12L22.89 27.1L22.86 27.08L22.82 27.07L20.64 25.8L20.6 25.83L20.18 26.04L19.74 26.23L19.3 26.41L18.85 26.57L18.65 26.63L18 29.06L17.99 29.1L17.97 29.14L17.96 29.18L17.95 29.21L17.94 29.25L17.92 29.29L17.91 29.32L17.9 29.36L17.88 29.39L17.87 29.43L17.86 29.46L17.84 29.49L17.83 29.53L17.81 29.56L17.8 29.59L17.78 29.62L17.77 29.64L17.75 29.67L17.73 29.7L17.72 29.73L17.7 29.75L17.68 29.77L17.66 29.8L17.64 29.82L17.62 29.84L17.6 29.86L17.58 29.88L17.56 29.9L17.54 29.91L17.52 29.93L17.49 29.94L17.47 29.95L17.45 29.96L17.42 29.97L17.39 29.98L17.37 29.99L17.34 29.99L17.31 30L17.28 30L17.25 30L12.75 30L12.72 30L12.69 30L12.66 29.99L12.63 29.99L12.6 29.98L12.58 29.97L12.55 29.96L12.52 29.95L12.5 29.94L12.48 29.93L12.45 29.91L12.43 29.9L12.41 29.88L12.38 29.86L12.36 29.84L12.34 29.82L12.32 29.8L12.3 29.77L12.28 29.75L12.26 29.73L12.25 29.7L12.23 29.67L12.21 29.64L12.2 29.62L12.18 29.59L12.17 29.56L12.15 29.53L12.14 29.49L12.12 29.46L12.11 29.43L12.1 29.39L12.08 29.36L12.07 29.32L12.06 29.29L12.05 29.25L12.04 29.21L12.03 29.18L12.02 29.14L12.01 29.1L12 29.06L11.35 26.63L11.15 26.57L10.7 26.41L10.26 26.23L9.82 26.04L9.4 25.83L9.35 25.8L7.18 27.06L7.14 27.08L7.11 27.1L7.08 27.12L7.04 27.14L7.01 27.15L6.98 27.17L6.94 27.19L6.91 27.21L6.88 27.22L6.84 27.24L6.81 27.25L6.78 27.26L6.74 27.28L6.71 27.29L6.68 27.3L6.65 27.31L6.62 27.32L6.58 27.32L6.55 27.33L6.52 27.34L6.49 27.34L6.46 27.35L6.43 27.35L6.4 27.35L6.37 27.35L6.34 27.35L6.31 27.35L6.29 27.34L6.26 27.34L6.23 27.33L6.2 27.32L6.18 27.31L6.15 27.3L6.13 27.29L6.1 27.28L6.08 27.26L6.05 27.25L6.03 27.23L6.01 27.21L5.98 27.19L2.8 24.01L2.78 23.98L2.76 23.96L2.74 23.94L2.73 23.92L2.71 23.89L2.7 23.87L2.69 23.84L2.68 23.82L2.67 23.79L2.66 23.76L2.66 23.74L2.66 23.71L2.65 23.68L2.65 23.66L2.65 23.63L2.65 23.6L2.65 23.57L2.66 23.54L2.66 23.51L2.67 23.48L2.67 23.45L2.68 23.42L2.69 23.39L2.7 23.36L2.71 23.33L2.72 23.29L2.73 23.26L2.74 23.23L2.76 23.2L2.77 23.16L2.78 23.13L2.8 23.1L2.81 23.06L2.83 23.03L2.85 22.99L2.86 22.96L2.88 22.92L2.9 22.89L2.92 22.85L2.93 22.81L4.19 20.64L4.17 20.6L3.96 20.18L3.77 19.74L3.59 19.3L3.43 18.85L3.37 18.65L0.94 18L0.9 17.99L0.86 17.97L0.82 17.96L0.79 17.95L0.75 17.94L0.71 17.92L0.68 17.91L0.64 17.9L0.61 17.88L0.57 17.87L0.54 17.86L0.51 17.84L0.47 17.83L0.44 17.81L0.41 17.8L0.38 17.78L0.36 17.77L0.33 17.75L0.3 17.73L0.27 17.72L0.25 17.7L0.23 17.68L0.2 17.66L0.18 17.64L0.16 17.62L0.14 17.6L0.12 17.58L0.1 17.56L0.09 17.54L0.07 17.52L0.06 17.49L0.05 17.47L0.04 17.45L0.03 17.42L0.02 17.39L0.01 17.37L0.01 17.34L0 17.31L0 17.28L0 17.25L0 12.75L0 12.72L0 12.69L0.01 12.66L0.01 12.63L0.02 12.6L0.03 12.58L0.04 12.55L0.05 12.52L0.06 12.5L0.07 12.48L0.09 12.45L0.1 12.43L0.12 12.41L0.14 12.38L0.16 12.36L0.18 12.34L0.2 12.32L0.23 12.3L0.25 12.28L0.27 12.26L0.3 12.25L0.33 12.23L0.36 12.21L0.38 12.2L0.41 12.18L0.44 12.17L0.47 12.15L0.51 12.14L0.54 12.12L0.57 12.11L0.61 12.1L0.64 12.08L0.68 12.07L0.71 12.06L0.75 12.05L0.79 12.04L0.82 12.03L0.86 12.02L0.9 12.01L0.94 12L3.37 11.35L3.43 11.15L3.59 10.7L3.77 10.26L3.96 9.82L4.17 9.4L4.2 9.36L2.93 7.18L2.92 7.14L2.9 7.11L2.88 7.07L2.86 7.03L2.85 7L2.83 6.96L2.81 6.93L2.8 6.9L2.78 6.86L2.77 6.83L2.76 6.79L2.74 6.76L2.73 6.73L2.72 6.7L2.71 6.66L2.7 6.63L2.69 6.6L2.68 6.57L2.67 6.54L2.67 6.51L2.66 6.48L2.66 6.45L2.65 6.42L2.65 6.39L2.65 6.36L2.65 6.33L2.65 6.31L2.66 6.28L2.66 6.25L2.66 6.23L2.67 6.2L2.68 6.17L2.69 6.15L2.7 6.12L2.71 6.1L2.73 6.08L2.74 6.05L2.76 6.03L2.78 6.01L2.8 5.98L5.98 2.8L6.01 2.78L6.03 2.76L6.05 2.74L6.08 2.73L6.1 2.71L6.13 2.7L6.15 2.69L6.18 2.68L6.2 2.67L6.23 2.66L6.26 2.65L6.29 2.65L6.31 2.65L6.34 2.64L6.37 2.64L6.4 2.64L6.43 2.64L6.46 2.65L6.49 2.65L6.52 2.65L6.55 2.66L6.58 2.67L6.62 2.67L6.65 2.68L6.68 2.69L6.71 2.7L6.74 2.71L6.78 2.73L6.81 2.74L6.84 2.75L6.88 2.77L6.91 2.79L6.94 2.8L6.98 2.82L7.01 2.84L7.04 2.86L7.08 2.87L7.11 2.89L7.14 2.91L7.18 2.93L9.36 4.2L9.4 4.17L9.82 3.96L10.26 3.77L10.7 3.59L11.15 3.43L11.35 3.37L12 0.94L12.01 0.9L12.02 0.86L12.03 0.82L12.04 0.79L12.05 0.75L12.06 0.71L12.07 0.68L12.08 0.64L12.1 0.61L12.11 0.57L12.12 0.54L12.14 0.51L12.15 0.47L12.17 0.44L12.18 0.41L12.2 0.38L12.21 0.36L12.23 0.33L12.25 0.3L12.26 0.27L12.28 0.25L12.3 0.23L12.32 0.2L12.34 0.18L12.36 0.16L12.38 0.14L12.41 0.12L12.43 0.1L12.45 0.09L12.48 0.07L12.5 0.06L12.52 0.05L12.55 0.04L12.58 0.03L12.6 0.02L12.63 0.01L12.66 0.01L12.69 0L12.72 0L12.75 0L17.25 0L17.28 0L17.31 0ZM14.46 8.46L14.2 8.49L13.94 8.52L13.68 8.57L13.42 8.63L13.17 8.7L12.93 8.77L12.68 8.86L12.45 8.95L12.21 9.06L11.98 9.17L11.76 9.29L11.54 9.42L11.33 9.56L11.12 9.7L10.92 9.86L10.73 10.02L10.54 10.18L10.36 10.36L10.18 10.54L10.02 10.73L9.86 10.92L9.7 11.12L9.56 11.33L9.42 11.54L9.29 11.76L9.17 11.98L9.06 12.21L8.95 12.45L8.86 12.68L8.77 12.93L8.7 13.17L8.63 13.42L8.57 13.68L8.52 13.94L8.49 14.2L8.46 14.46L8.44 14.73L8.44 15L8.44 15.27L8.46 15.54L8.49 15.8L8.52 16.06L8.57 16.32L8.63 16.58L8.7 16.83L8.77 17.07L8.86 17.32L8.95 17.55L9.06 17.79L9.17 18.02L9.29 18.24L9.42 18.46L9.56 18.67L9.7 18.88L9.86 19.08L10.02 19.27L10.18 19.46L10.36 19.64L10.54 19.82L10.73 19.98L10.92 20.14L11.12 20.3L11.33 20.44L11.54 20.58L11.76 20.71L11.98 20.83L12.21 20.94L12.45 21.05L12.68 21.14L12.93 21.23L13.17 21.3L13.42 21.37L13.68 21.43L13.94 21.48L14.2 21.51L14.46 21.54L14.73 21.56L15 21.56L15.27 21.56L15.54 21.54L15.8 21.51L16.06 21.48L16.32 21.43L16.58 21.37L16.83 21.3L17.07 21.23L17.32 21.14L17.55 21.05L17.79 20.94L18.02 20.83L18.24 20.71L18.46 20.58L18.67 20.44L18.88 20.3L19.08 20.14L19.27 19.98L19.46 19.82L19.64 19.64L19.82 19.46L19.98 19.27L20.14 19.08L20.3 18.88L20.44 18.67L20.58 18.46L20.71 18.24L20.83 18.02L20.94 17.79L21.05 17.55L21.14 17.32L21.23 17.07L21.3 16.83L21.37 16.58L21.43 16.32L21.48 16.06L21.51 15.8L21.54 15.54L21.56 15.27L21.56 15L21.56 14.73L21.54 14.46L21.51 14.2L21.48 13.94L21.43 13.68L21.37 13.42L21.3 13.17L21.23 12.93L21.14 12.68L21.05 12.45L20.94 12.21L20.83 11.98L20.71 11.76L20.58 11.54L20.44 11.33L20.3 11.12L20.14 10.92L19.98 10.73L19.82 10.54L19.64 10.36L19.46 10.18L19.27 10.02L19.08 9.86L18.88 9.7L18.67 9.56L18.46 9.42L18.24 9.29L18.02 9.17L17.79 9.06L17.55 8.95L17.32 8.86L17.07 8.77L16.83 8.7L16.58 8.63L16.32 8.57L16.06 8.52L15.8 8.49L15.54 8.46L15.27 8.44L15 8.44L14.73 8.44L14.46 8.46Z" id="a3OMwvTKI"></path></defs><g><g><g><use xlink:href="#a3OMwvTKI" opacity="1" fill="#747474" fill-opacity="1"></use></g></g></g></svg>