<?xml version="1.0" encoding="UTF-8" standalone="no"?>
<!DOCTYPE svg PUBLIC "-//W3C//DTD SVG 1.1//EN" "http://www.w3.org/Graphics/SVG/1.1/DTD/svg11.dtd">
<svg version="1.1" xmlns="http://www.w3.org/2000/svg" xmlns:xlink="http://www.w3.org/1999/xlink" preserveAspectRatio="xMidYMid meet" viewBox="0 0 42 30" width="42" height="30"><defs><path d="M41.53 6.52C41.79 6.52 42 6.73 42 6.99C42 11.59 42 24.92 42 29.53C42 29.79 41.79 30 41.53 30C33.22 30 8.78 30 0.47 30C0.21 30 0 29.79 0 29.53C0 24.92 0 11.59 0 6.99C0 6.73 0.21 6.52 0.47 6.52C8.78 6.52 33.22 6.52 41.53 6.52Z" id="c4OFDJGQI"></path><path d="M26.46 0C28.44 0 30.05 1.61 30.05 3.59C30.05 4.66 30.05 6.66 30.05 8.33C30.05 8.65 29.79 8.92 29.47 8.92C25.96 8.92 16.04 8.92 12.53 8.92C12.21 8.92 11.95 8.65 11.95 8.33C11.95 6.66 11.95 4.54 11.95 3.45C11.95 1.54 13.49 0 15.39 0C18.33 0 23.56 0 26.46 0Z" id="c11gcgqeoX"></path><path d="M41.25 7.04C41.5 7.04 41.71 7.25 41.71 7.5C41.71 11.93 41.71 24.75 41.71 29.18C41.71 29.43 41.5 29.63 41.25 29.63C33.09 29.63 9.05 29.63 0.89 29.63C0.63 29.63 0.43 29.43 0.43 29.18C0.43 24.75 0.43 11.93 0.43 7.5C0.43 7.25 0.63 7.04 0.89 7.04C9.05 7.04 33.09 7.04 41.25 7.04Z" id="an2O2XWnR"></path><path d="M24.92 2.65C25.88 2.65 26.66 3.43 26.66 4.39C26.66 4.82 26.66 5.42 26.66 6.11C26.66 6.34 26.48 6.52 26.26 6.52C24.07 6.52 17.93 6.52 15.74 6.52C15.52 6.52 15.34 6.34 15.34 6.11C15.34 5.42 15.34 4.85 15.34 4.43C15.34 3.45 16.14 2.65 17.12 2.65C19.03 2.65 23 2.65 24.92 2.65Z" id="d2o2MuWKEg"></path><path d="M0.94 13.15L9.87 20.42L8.96 21.17L0.04 13.9L0.94 13.15Z" id="alE61WNwf"></path><path d="M41.1 13.15L32.17 20.42L33.08 21.17L42 13.9L41.1 13.15Z" id="b5h6Dx3ZkT"></path><path d="M32.8 20.12C33.06 20.12 33.27 20.33 33.27 20.6C33.27 20.71 33.27 20.75 33.27 20.91C33.27 21.05 33.16 21.17 33.01 21.17C28.17 21.17 13.9 21.17 9.06 21.17C8.92 21.17 8.8 21.05 8.8 20.91C8.8 20.75 8.8 20.71 8.8 20.6C8.8 20.33 9.01 20.12 9.28 20.12C14.08 20.12 28 20.12 32.8 20.12Z" id="c1HLPpWSvJ"></path><path d="M1.32 6.52L1.32 13.92L0.04 13.92C0.04 10.18 0.04 7.85 0.04 6.91C0.04 6.7 0.22 6.52 0.43 6.52C0.55 6.52 0.85 6.52 1.32 6.52Z" id="a3r7bIXCH8"></path><path d="M1.32 6.52L40.81 6.52L40.81 7.57L1.32 7.57L1.32 6.52Z" id="bhkZPwvcR"></path><path d="M40.72 6.52L40.72 13.92L42 13.92C42 10.18 42 7.85 42 6.91C42 6.7 41.82 6.52 41.61 6.52C41.49 6.52 41.19 6.52 40.72 6.52Z" id="a74eiRk0DD"></path><path d="M18.28 13.12L23.72 13.12L23.72 27.12L18.28 27.12L18.28 13.12Z" id="b4NgyxCCz"></path><path d="M19.69 27.87L18.32 26.5L21.07 26.5L23.82 26.5L22.44 27.87L21.07 29.24L19.69 27.87Z" id="afKToHF2B"></path><path d="M24.8 15.67C25.1 15.67 25.34 15.91 25.34 16.21C25.34 17.58 25.34 21.17 25.34 22.54C25.34 22.84 25.1 23.08 24.8 23.08C23.17 23.08 18.83 23.08 17.2 23.08C16.9 23.08 16.66 22.84 16.66 22.54C16.66 21.17 16.66 17.58 16.66 16.21C16.66 15.91 16.9 15.67 17.2 15.67C18.83 15.67 23.17 15.67 24.8 15.67Z" id="d2bkwTKZg"></path><path d="M21.45 20.34C21.6 20.34 21.72 20.46 21.72 20.61C21.72 21.11 21.72 22.31 21.72 22.8C21.72 22.95 21.6 23.08 21.45 23.08C21.22 23.08 20.78 23.08 20.55 23.08C20.4 23.08 20.28 22.95 20.28 22.8C20.28 22.31 20.28 21.11 20.28 20.61C20.28 20.46 20.4 20.34 20.55 20.34C20.78 20.34 21.22 20.34 21.45 20.34Z" id="a2Sxnp9WIg"></path></defs><g><g><g><use xlink:href="#c4OFDJGQI" opacity="1" fill="#662b01" fill-opacity="1"></use></g><g><use xlink:href="#c11gcgqeoX" opacity="1" fill="#7e3501" fill-opacity="1"></use></g><g><use xlink:href="#an2O2XWnR" opacity="1" fill="#a55923" fill-opacity="1"></use></g><g><use xlink:href="#d2o2MuWKEg" opacity="1" fill="#ffffff" fill-opacity="1"></use></g><g><use xlink:href="#alE61WNwf" opacity="1" fill="#7d4b28" fill-opacity="1"></use></g><g><use xlink:href="#b5h6Dx3ZkT" opacity="1" fill="#7d4b28" fill-opacity="1"></use></g><g><use xlink:href="#c1HLPpWSvJ" opacity="1" fill="#634026" fill-opacity="1"></use></g><g><use xlink:href="#a3r7bIXCH8" opacity="1" fill="#7d4b28" fill-opacity="1"></use></g><g><use xlink:href="#bhkZPwvcR" opacity="1" fill="#7d4b28" fill-opacity="1"></use></g><g><use xlink:href="#a74eiRk0DD" opacity="1" fill="#7d4b28" fill-opacity="1"></use></g><g><use xlink:href="#b4NgyxCCz" opacity="1" fill="#865a3b" fill-opacity="1"></use><g><use xlink:href="#b4NgyxCCz" opacity="1" fill-opacity="0" stroke="#602800" stroke-width="1" stroke-opacity="1"></use></g></g><g><use xlink:href="#afKToHF2B" opacity="1" fill="#865a3b" fill-opacity="1"></use></g><g><use xlink:href="#d2bkwTKZg" opacity="1" fill="#a2a2a2" fill-opacity="0"></use><g><use xlink:href="#d2bkwTKZg" opacity="1" fill-opacity="0" stroke="#bfbfbf" stroke-width="2" stroke-opacity="1"></use></g></g><g><use xlink:href="#a2Sxnp9WIg" opacity="1" fill="#bfbfbf" fill-opacity="1"></use></g></g></g></svg>