<?xml version="1.0" encoding="UTF-8" standalone="no"?>
<!DOCTYPE svg PUBLIC "-//W3C//DTD SVG 1.1//EN" "http://www.w3.org/Graphics/SVG/1.1/DTD/svg11.dtd">
<svg version="1.1" xmlns="http://www.w3.org/2000/svg" xmlns:xlink="http://www.w3.org/1999/xlink" preserveAspectRatio="xMidYMid meet" viewBox="0 0 21 21" width="21" height="21"><defs><path d="M15 7.5C15 11.64 11.64 15 7.5 15C3.36 15 0 11.64 0 7.5C0 3.36 3.36 0 7.5 0C11.64 0 15 3.36 15 7.5Z" id="b5DuHafvhQ"></path><path d="M12 7.5C12 9.98 9.98 12 7.5 12C5.02 12 3 9.98 3 7.5C3 5.02 5.02 3 7.5 3C9.98 3 12 5.02 12 7.5Z" id="d5ymuczVju"></path><path d="M13.16 10.56C13.29 10.45 13.48 10.46 13.59 10.58C15.08 12.21 19.34 16.88 20.82 18.51C20.94 18.64 20.93 18.83 20.8 18.95C20.33 19.38 19.12 20.48 18.64 20.92C18.51 21.03 18.32 21.02 18.21 20.9C16.72 19.27 12.46 14.6 10.98 12.97C10.86 12.84 10.87 12.65 11 12.54C11.47 12.1 12.68 11 13.16 10.56Z" id="a3bCJzBicN"></path></defs><g><g><g><use xlink:href="#b5DuHafvhQ" opacity="1" fill="#b3b3b3" fill-opacity="1"></use></g><g><use xlink:href="#d5ymuczVju" opacity="1" fill="#ffffff" fill-opacity="1"></use></g><g><use xlink:href="#a3bCJzBicN" opacity="1" fill="#b3b3b3" fill-opacity="1"></use></g></g></g></svg>