<!--suppress CheckTagEmptyBody -->
<svg xmlns="http://www.w3.org/2000/svg" viewBox="0 0 2317.33 450.07">
    <defs>
        <style>.cls-1{fill:#8abeef;}</style>
    </defs>
    <path class="cls-1"
          d="M316.3,409.87q-31.73-40.22-31.72-118.38T316.3,173.11q31.71-40.2,88.9-40.2t88.89,40.2q31.71,40.2,31.72,118.38T494.09,409.87q-31.72,40.2-88.89,40.2T316.3,409.87Zm147.42-24.13q21-28.14,21-83.08V280.32q0-54.94-21-83.09T405.2,169.09q-37.53,0-58.52,28.14t-21,83.09v22.34q0,54.94,21,83.08t58.52,28.15Q442.72,413.89,463.72,385.74Z"></path>
    <path class="cls-1"
          d="M579,138.27H702.25q44.24,0,67.91,23t23.67,61.87q0,28.59-14.29,49.59t-40.21,29.48L801,444.71H757.2L700.47,309.36h-82.2V444.71H579ZM700.91,273.62q23.24,0,37.53-13.85t14.29-36.63q0-23.22-13.4-36.18t-38.42-13H618.27v99.62Z"></path>
    <path class="cls-1"
          d="M843.41,138.27h34L991.28,330.8Q997.52,342,1010,371.9l1.34-.45Q1010,340.19,1010,330.8V138.27h35.29V444.71h-32.61L897.91,249.5q-7.14-12.51-19.65-41.1l-1.34.45q1.77,28.59,1.79,40.65V444.71h-35.3Z"></path>
    <path class="cls-1"
          d="M1225.57,427.74q-28.8-22.33-28.81-69.69l.45-8.93h40.65l-.45,9.38q0,27.24,16.76,41.32t44,14.07q30.81,0,47.57-13.18T1362.49,363q0-16.51-9.16-27a66.77,66.77,0,0,0-22.78-16.76q-13.62-6.24-37.3-13.84-29-9.82-46.9-18.77a85.18,85.18,0,0,1-30.6-26.13Q1203,243.25,1203,215.1q0-40.2,27.25-61.2t70.13-21q42.88,0,69.46,21.21t26.58,65v5.36h-40.65v-6.7q0-22.78-15.41-35.74t-39.09-12.95q-25.45,0-41.09,10.94T1244.56,212q0,15.65,8.94,25.69a65.15,65.15,0,0,0,22.33,16.08,383,383,0,0,0,36.63,13.63q29.49,9.83,47.58,18.54a82.7,82.7,0,0,1,30.82,25.9q12.73,17.2,12.73,44.45,0,49.15-27.92,71.48T1300,450.07Q1254.4,450.07,1225.57,427.74Z"></path>
    <path class="cls-1" d="M1514.82,174h-83.53V138.27h206.38V174h-83.54V444.71h-39.31Z"></path>
    <path class="cls-1"
          d="M1716.73,138.27h50.48l97.39,306.44h-42.44l-21-68.35h-121.5l-21,68.35h-39.31ZM1790,340.63l-41.55-136.25q-3.14-9.82-7.15-33.95h-1.78q-4,24.57-7.15,33.95l-42,136.25Z"></path>
    <path class="cls-1" d="M1929.37,174h-83.54V138.27h206.38V174h-83.53V444.71h-39.31Z"></path>
    <rect class="cls-1" x="136.64" y="150.58" width="39.99" height="294.13"></rect>
    <rect class="cls-1" x="59.8" y="363.08" width="39.99" height="81.63"></rect>
    <polygon class="cls-1"
             points="176.63 138.12 80.29 138.12 0 233.81 29.27 258.38 99.79 174.34 176.63 174.34 176.63 138.12"></polygon>
    <polygon class="cls-1"
             points="384.84 0 324.36 5.16 342.74 20.54 244.41 138.12 114.54 138.12 114.54 174.34 263.9 174.34 372.05 45.06 390.44 60.44 384.84 0"></polygon>
    <path class="cls-1"
          d="M2242.82,285.67q-18.12-8.71-47.64-18.56a383.35,383.35,0,0,1-36.69-13.65,65.19,65.19,0,0,1-22.36-16.1q-9-10.06-9-25.72h-41.54c0,1-.06,2.07-.06,3.13q0,28.18,12.75,45.4A85.32,85.32,0,0,0,2129,286.34q17.88,9,47,18.79,23.7,7.62,37.36,13.87a66.9,66.9,0,0,1,22.81,16.78q9.16,10.52,9.17,27.06,0,24.62-16.77,37.8t-47.65,13.2q-27.29,0-44.06-14.09T2120,358.37l.45-9.4h-40.71l-.45,8.95q0,47.43,28.86,69.79t74.48,22.36q47.86,0,75.83-22.36t28-71.58q0-27.28-12.75-44.51A82.91,82.91,0,0,0,2242.82,285.67Z"></path>
    <polygon class="cls-1"
             points="2133.89 164.22 2102.86 138.27 2183.02 42.74 2295.66 137.25 2311.97 117.81 2317.33 181.84 2253.35 187.67 2269.66 168.24 2188.01 99.72 2133.89 164.22"></polygon>
    <polygon class="cls-1"
             points="2102.86 138.27 2052.22 138.27 2034.09 156.23 2052.22 174 2125.68 174 2133.89 164.22 2133.89 134.48 2102.86 138.27"></polygon>
</svg>
